<?xml version="1.0" encoding="UTF-8"?>
<svg width="50px" height="50px" viewBox="0 0 50 50" version="1.1" xmlns="http://www.w3.org/2000/svg" xmlns:xlink="http://www.w3.org/1999/xlink">
    <!-- Generator: Sketch 49.3 (51167) - http://www.bohemiancoding.com/sketch -->
    <title>Atom / Ico / Home</title>
    <desc>Created with Sketch.</desc>
    <defs>
        <path d="M39.7949219,24.9042969 C39.970704,25.0996104 40.053711,25.3242175 40.0439453,25.578125 C40.0341796,25.8320325 39.9414071,26.0566396 39.765625,26.2519531 C39.6679683,26.3300785 39.5654302,26.3935544 39.4580078,26.4423828 C39.3505854,26.4912112 39.2382818,26.515625 39.1210938,26.515625 C38.9843743,26.515625 38.8574225,26.4912112 38.7402344,26.4423828 C38.6230463,26.3935544 38.525391,26.320313 38.4472656,26.2226562 L37.1875,24.9042969 L37.1875,38.9375 C37.1875,39.1914075 37.0947275,39.4111319 36.9091797,39.5966797 C36.7236319,39.7822275 36.5039075,39.875 36.25,39.875 L29.6875,39.875 C29.4335925,39.875 29.2138681,39.7822275 29.0283203,39.5966797 C28.8427725,39.4111319 28.75,39.1914075 28.75,38.9375 L28.75,29.5625 L21.2792969,29.5625 L21.25,38.9375 C21.25,39.1914075 21.1572275,39.4111319 20.9716797,39.5966797 C20.7861319,39.7822275 20.5664075,39.875 20.3125,39.875 L13.7792969,39.875 C13.505858,39.875 13.2812509,39.7822275 13.1054688,39.5966797 C12.9296866,39.4111319 12.8417969,39.1914075 12.8417969,38.9375 L12.8417969,24.9042969 L11.5820312,26.2226562 C11.3867178,26.3984384 11.1621106,26.4912109 10.9082031,26.5009766 C10.6542956,26.5107422 10.4296885,26.4277353 10.234375,26.2519531 C10.0585929,26.0566396 9.96582036,25.8320325 9.95605469,25.578125 C9.94628901,25.3242175 10.029296,25.0996104 10.2050781,24.9042969 L24.3554688,10.1679688 C24.4531255,10.070312 24.5605463,9.99707056 24.6777344,9.94824219 C24.7949225,9.89941382 24.9121088,9.875 25.0292969,9.875 C25.1660163,9.875 25.2929682,9.89941382 25.4101562,9.94824219 C25.5273443,9.99707056 25.6249996,10.070312 25.703125,10.1679688 L39.7949219,24.9042969 Z M35.3125,23.0878906 C35.3125,23.0488279 35.3222655,23.0097658 35.3417969,22.9707031 L25.0292969,12.1894531 L14.6875,22.9707031 C14.6875,23.0097658 14.6923828,23.0488279 14.7021484,23.0878906 C14.7119141,23.1269533 14.7167969,23.1660154 14.7167969,23.2050781 L14.7167969,38 L19.375,38 L19.4042969,28.625 C19.4042969,28.3710925 19.4970694,28.1513681 19.6826172,27.9658203 C19.868165,27.7802725 20.0878894,27.6875 20.3417969,27.6875 L29.6875,27.6875 C29.9414075,27.6875 30.1611319,27.7802725 30.3466797,27.9658203 C30.5322275,28.1513681 30.625,28.3710925 30.625,28.625 L30.625,38 L35.3125,38 L35.3125,23.0878906 Z" id="path-1"></path>
    </defs>
    <g id="Atom-/-Ico-/-Home" stroke="none" stroke-width="1" fill="none" fill-rule="evenodd">
        <mask id="mask-2" fill="white">
            <use xlink:href="#path-1"></use>
        </mask>
        <use id="home---simple-line-icons" fill="#000000" xlink:href="#path-1"></use>
        <g id="Atom-/-Color-/-Green---Accent" mask="url(#mask-2)" fill="#ffffff">
            <rect id="Rectangle" x="0" y="0" width="50" height="50"></rect>
        </g>
    </g>
</svg>