<?xml version="1.0" encoding="utf-8"?>
<!-- Generator: Adobe Illustrator 22.0.1, SVG Export Plug-In . SVG Version: 6.00 Build 0)  -->
<svg version="1.1" id="Layer_1" xmlns="http://www.w3.org/2000/svg" xmlns:xlink="http://www.w3.org/1999/xlink" x="0px" y="0px"
	 viewBox="0 0 50 50" style="enable-background:new 0 0 50 50; fill:#ffffff" xml:space="preserve">
<style type="text/css">
	.st0{filter:url(#Adobe_OpacityMaskFilter);}
	.st1{fill:#ff0000;}
	.st2{mask:url(#mask-2_1_);}
</style>
<title>Atom / Ico / Search</title>
<desc>Created with Sketch.</desc>
<g id="Atom-_x2F_-Ico-_x2F_-Search">
	<g id="Fill-39" transform="translate(25.000000, 25.000000) scale(-1, 1) translate(-25.000000, -25.000000) ">
		<path id="path-1_1_" d="M29.7,28.8c-1.2,0-2.3-0.2-3.3-0.7c-1-0.4-1.9-1-2.7-1.8c-0.8-0.8-1.4-1.7-1.8-2.7c-0.4-1-0.7-2.1-0.7-3.3
			c0-1.2,0.2-2.3,0.7-3.3c0.4-1,1-1.9,1.8-2.7c0.8-0.8,1.7-1.4,2.7-1.8c1-0.4,2.1-0.7,3.3-0.7s2.3,0.2,3.3,0.7c1,0.4,1.9,1,2.7,1.8
			c0.8,0.8,1.4,1.7,1.8,2.7c0.4,1,0.7,2.1,0.7,3.3c0,1.2-0.2,2.3-0.7,3.3c-0.4,1-1,1.9-1.8,2.7C34.9,27,34,27.6,33,28.1
			C31.9,28.5,30.8,28.8,29.7,28.8 M10,39c0,0.3,0.1,0.5,0.2,0.7c0.2,0.2,0.4,0.3,0.7,0.3c0.3,0,0.5-0.1,0.7-0.3l11.5-11.5
			c0.9,0.8,2,1.4,3.1,1.8s2.3,0.6,3.5,0.6c0.9,0,1.9-0.1,2.7-0.4c0.9-0.2,1.7-0.6,2.5-1s1.5-1,2.1-1.6c0.6-0.6,1.2-1.3,1.6-2.1
			c0.4-0.8,0.8-1.6,1-2.5s0.4-1.8,0.4-2.7c0-0.9-0.1-1.9-0.4-2.7s-0.6-1.7-1-2.5c-0.4-0.8-1-1.5-1.6-2.1c-0.6-0.6-1.3-1.2-2.1-1.6
			c-0.8-0.4-1.6-0.8-2.5-1c-0.9-0.2-1.8-0.4-2.7-0.4s-1.9,0.1-2.7,0.4c-0.9,0.2-1.7,0.6-2.5,1c-0.8,0.4-1.5,1-2.1,1.6
			c-0.6,0.6-1.2,1.3-1.6,2.1c-0.4,0.8-0.8,1.6-1,2.5c-0.2,0.9-0.4,1.8-0.4,2.7c0,1.2,0.2,2.4,0.6,3.5s1,2.1,1.8,3.1
			c-0.1,0.1-0.4,0.4-0.8,0.8c-0.4,0.4-0.9,0.9-1.5,1.5c-0.6,0.6-1.2,1.2-1.9,1.9c-0.7,0.7-1.4,1.4-2.1,2.1c-0.7,0.7-1.4,1.4-2,2
			c-0.7,0.7-1.2,1.3-1.7,1.8c-0.5,0.5-0.9,1-1.2,1.3C10.2,38.7,10,38.9,10,39"/>
	</g>
	<defs>
		<filter id="Adobe_OpacityMaskFilter" filterUnits="userSpaceOnUse">
			<feColorMatrix  type="matrix" values="1 0 0 0 0  0 1 0 0 0  0 0 1 0 0  0 0 0 1 0"/>
		</filter>
	</defs>
	<mask maskUnits="userSpaceOnUse" id="mask-2_1_">
		<g class="st0">
			<path id="path-1_2_" class="st1" d="M20.3,28.8c1.2,0,2.3-0.2,3.3-0.7c1-0.4,1.9-1,2.7-1.8c0.8-0.8,1.4-1.7,1.8-2.7
				c0.4-1,0.7-2.1,0.7-3.3c0-1.2-0.2-2.3-0.7-3.3c-0.4-1-1-1.9-1.8-2.7c-0.8-0.8-1.7-1.4-2.7-1.8c-1-0.4-2.1-0.7-3.3-0.7
				s-2.3,0.2-3.3,0.7c-1,0.4-1.9,1-2.7,1.8C13.6,15.1,13,16,12.5,17c-0.4,1-0.7,2.1-0.7,3.3c0,1.2,0.2,2.3,0.7,3.3
				c0.4,1,1,1.9,1.8,2.7c0.8,0.8,1.7,1.4,2.7,1.8C18.1,28.5,19.2,28.8,20.3,28.8 M40,39c0,0.3-0.1,0.5-0.2,0.7
				c-0.2,0.2-0.4,0.3-0.7,0.3c-0.3,0-0.5-0.1-0.7-0.3L26.9,28.2c-0.9,0.8-2,1.4-3.1,1.8s-2.3,0.6-3.5,0.6c-0.9,0-1.9-0.1-2.7-0.4
				c-0.9-0.2-1.7-0.6-2.5-1s-1.5-1-2.1-1.6c-0.6-0.6-1.2-1.3-1.6-2.1c-0.4-0.8-0.8-1.6-1-2.5c-0.2-0.9-0.4-1.8-0.4-2.7
				c0-0.9,0.1-1.9,0.4-2.7c0.2-0.9,0.6-1.7,1-2.5c0.4-0.8,1-1.5,1.6-2.1c0.6-0.6,1.3-1.2,2.1-1.6c0.8-0.4,1.6-0.8,2.5-1
				c0.9-0.2,1.8-0.4,2.7-0.4s1.9,0.1,2.7,0.4c0.9,0.2,1.7,0.6,2.5,1c0.8,0.4,1.5,1,2.1,1.6c0.6,0.6,1.2,1.3,1.6,2.1
				c0.4,0.8,0.8,1.6,1,2.5c0.2,0.9,0.4,1.8,0.4,2.7c0,1.2-0.2,2.4-0.6,3.5s-1,2.1-1.8,3.1c0.1,0.1,0.4,0.4,0.8,0.8
				c0.4,0.4,0.9,0.9,1.5,1.5c0.6,0.6,1.2,1.2,1.9,1.9c0.7,0.7,1.4,1.4,2.1,2.1c0.7,0.7,1.4,1.4,2,2c0.7,0.7,1.2,1.3,1.7,1.8
				c0.5,0.5,0.9,1,1.2,1.3C39.8,38.7,40,38.9,40,39"/>
		</g>
	</mask>
	<g id="Atom-_x2F_-Color-_x2F_-Green---Accent" class="st2">
	</g>
</g>
</svg>
