<?xml version="1.0" encoding="UTF-8"?>
<svg width="50px" height="50px" viewBox="0 0 50 50" version="1.1" xmlns="http://www.w3.org/2000/svg" xmlns:xlink="http://www.w3.org/1999/xlink">
    <!-- Generator: Sketch 49.3 (51167) - http://www.bohemiancoding.com/sketch -->
    <title>Atom / Ico / Settings</title>
    <desc>Created with Sketch.</desc>
    <defs>
        <path d="M24.912,28.779 C25.449,28.779 25.952,28.679 26.421,28.479 C26.89,28.279 27.3,28.003 27.651,27.651 C28.003,27.3 28.279,26.889 28.479,26.421 C28.679,25.952 28.779,25.449 28.779,24.912 C28.779,24.375 28.679,23.872 28.479,23.403 C28.279,22.934 28.003,22.524 27.651,22.173 C27.3,21.821 26.89,21.545 26.421,21.345 C25.952,21.145 25.449,21.045 24.912,21.045 C24.375,21.045 23.872,21.145 23.403,21.345 C22.934,21.545 22.524,21.821 22.173,22.173 C21.821,22.524 21.545,22.934 21.345,23.403 C21.145,23.872 21.045,24.375 21.045,24.912 C21.045,25.449 21.145,25.952 21.345,26.421 C21.545,26.889 21.821,27.3 22.173,27.651 C22.524,28.003 22.934,28.279 23.403,28.479 C23.872,28.679 24.375,28.779 24.912,28.779 Z M24.912,19.404 C25.674,19.404 26.389,19.548 27.058,19.836 C27.727,20.124 28.31,20.517 28.808,21.015 C29.307,21.513 29.7,22.097 29.988,22.766 C30.276,23.435 30.42,24.15 30.42,24.912 C30.42,25.674 30.276,26.389 29.988,27.058 C29.7,27.727 29.307,28.31 28.808,28.808 C28.31,29.306 27.727,29.699 27.058,29.987 C26.389,30.276 25.674,30.42 24.912,30.42 C24.15,30.42 23.435,30.276 22.766,29.987 C22.097,29.699 21.514,29.306 21.016,28.808 C20.517,28.31 20.124,27.727 19.836,27.058 C19.548,26.389 19.404,25.674 19.404,24.912 C19.404,24.15 19.548,23.435 19.836,22.766 C20.124,22.097 20.517,21.513 21.016,21.015 C21.514,20.517 22.097,20.124 22.766,19.836 C23.435,19.548 24.15,19.404 24.912,19.404 Z M34.316,26.289 C34.336,26.054 34.355,25.822 34.375,25.593 C34.394,25.363 34.404,25.132 34.404,24.897 C34.404,24.673 34.394,24.443 34.375,24.209 C34.355,23.974 34.336,23.745 34.316,23.52 L37.773,21.367 L36.514,18.32 L32.544,19.243 C32.241,18.872 31.931,18.53 31.614,18.217 C31.296,17.905 30.952,17.592 30.581,17.28 L31.504,13.31 L28.457,12.05 L26.289,15.508 C26.064,15.488 25.835,15.468 25.6,15.449 C25.366,15.429 25.137,15.42 24.912,15.42 C24.678,15.42 24.446,15.429 24.216,15.449 C23.987,15.468 23.755,15.488 23.52,15.508 L21.367,12.05 L18.32,13.31 L19.243,17.28 C18.872,17.583 18.53,17.893 18.218,18.21 C17.905,18.528 17.593,18.872 17.28,19.243 L13.31,18.32 L12.051,21.367 L15.508,23.535 C15.488,23.769 15.469,24.001 15.449,24.231 C15.43,24.46 15.42,24.692 15.42,24.926 C15.42,25.151 15.43,25.381 15.449,25.615 C15.469,25.849 15.488,26.079 15.508,26.303 L12.051,28.457 L13.31,31.504 L17.28,30.581 C17.583,30.952 17.893,31.294 18.21,31.606 C18.528,31.919 18.872,32.231 19.243,32.544 L18.32,36.513 L21.367,37.773 L23.535,34.316 C23.76,34.336 23.989,34.355 24.224,34.375 C24.458,34.394 24.687,34.404 24.912,34.404 C25.146,34.404 25.378,34.394 25.608,34.375 C25.837,34.355 26.069,34.336 26.304,34.316 L28.457,37.773 L31.504,36.513 L30.581,32.544 C30.952,32.241 31.294,31.931 31.606,31.613 C31.919,31.296 32.231,30.952 32.544,30.581 L36.514,31.504 L37.773,28.457 L34.316,26.289 Z M36.03,24.384 C36.03,24.472 36.033,24.56 36.037,24.648 C36.042,24.736 36.045,24.824 36.045,24.912 C36.045,25 36.042,25.088 36.037,25.175 C36.033,25.263 36.03,25.351 36.03,25.439 L39.824,27.798 L37.495,33.408 L33.144,32.412 C32.91,32.666 32.666,32.91 32.412,33.144 L33.408,37.495 L27.798,39.824 L25.439,36.03 C25.351,36.03 25.264,36.032 25.176,36.037 C25.088,36.042 25,36.045 24.912,36.045 C24.824,36.045 24.736,36.042 24.648,36.037 C24.56,36.032 24.473,36.03 24.385,36.03 L22.026,39.824 L16.416,37.495 L17.412,33.144 C17.158,32.91 16.914,32.666 16.68,32.412 L12.329,33.408 L10,27.798 L13.794,25.439 C13.794,25.351 13.791,25.263 13.787,25.175 C13.782,25.088 13.779,25 13.779,24.912 C13.779,24.824 13.782,24.736 13.787,24.648 C13.791,24.56 13.794,24.472 13.794,24.384 L10,22.026 L12.329,16.416 L16.68,17.412 C16.914,17.158 17.158,16.914 17.412,16.679 L16.416,12.329 L22.026,10 L24.385,13.794 C24.473,13.794 24.56,13.791 24.648,13.786 C24.736,13.781 24.824,13.779 24.912,13.779 C25,13.779 25.088,13.781 25.176,13.786 C25.264,13.791 25.351,13.794 25.439,13.794 L27.798,10 L33.408,12.329 L32.412,16.679 C32.666,16.914 32.91,17.158 33.144,17.412 L37.495,16.416 L39.824,22.026 L36.03,24.384 Z" id="path-1"></path>
    </defs>
    <g id="Atom-/-Ico-/-Settings" stroke="none" stroke-width="1" fill="none" fill-rule="evenodd">
        <mask id="mask-2" fill="white">
            <use xlink:href="#path-1"></use>
        </mask>
        <use id="Fill-6" fill="#000000" xlink:href="#path-1"></use>
        <g id="Atom-/-Color-/-Green---Accent" mask="url(#mask-2)" fill="#ffffff">
            <rect id="Rectangle" x="0" y="0" width="50" height="50"></rect>
        </g>
    </g>
</svg>