<?xml version="1.0" encoding="UTF-8"?>
<svg width="50px" height="50px" viewBox="0 0 50 50" version="1.1" xmlns="http://www.w3.org/2000/svg" xmlns:xlink="http://www.w3.org/1999/xlink">
    <!-- Generator: Sketch 49.3 (51167) - http://www.bohemiancoding.com/sketch -->
    <title>Atom / Ico / User</title>
    <desc>Created with Sketch.</desc>
    <defs>
        <path d="M18.218,22.29 C18.614,23.198 19.151,23.992 19.83,24.67 C20.508,25.349 21.302,25.886 22.21,26.282 C23.118,26.677 24.09,26.875 25.125,26.875 C26.16,26.875 27.132,26.677 28.04,26.282 C28.948,25.886 29.742,25.349 30.42,24.67 C31.099,23.992 31.636,23.198 32.032,22.29 C32.427,21.382 32.625,20.41 32.625,19.375 C32.625,18.34 32.427,17.368 32.032,16.46 C31.636,15.552 31.099,14.758 30.42,14.08 C29.742,13.401 28.948,12.864 28.04,12.468 C27.132,12.073 26.16,11.875 25.125,11.875 C24.09,11.875 23.118,12.073 22.21,12.468 C21.302,12.864 20.508,13.401 19.83,14.08 C19.151,14.758 18.614,15.552 18.218,16.46 C17.823,17.368 17.625,18.34 17.625,19.375 C17.625,20.41 17.823,21.382 18.218,22.29 Z M33.204,29.548 C34.273,30.374 35.181,31.328 35.928,32.412 C36.675,33.496 37.249,34.683 37.649,35.972 C38.05,37.261 38.25,38.604 38.25,40 L36.375,40 C36.375,38.398 36.089,36.912 35.518,35.54 C34.947,34.167 34.158,32.979 33.152,31.973 C32.146,30.967 30.958,30.178 29.585,29.607 C28.213,29.036 26.727,28.75 25.125,28.75 C24.08,28.75 23.074,28.882 22.107,29.146 C21.141,29.409 20.24,29.783 19.405,30.266 C18.57,30.75 17.813,31.331 17.134,32.009 C16.456,32.688 15.875,33.445 15.391,34.28 C14.908,35.115 14.534,36.016 14.271,36.982 C14.007,37.949 13.875,38.955 13.875,40 L12,40 C12,38.594 12.205,37.249 12.615,35.964 C13.025,34.68 13.606,33.501 14.358,32.427 C15.11,31.353 16.021,30.405 17.09,29.585 C18.16,28.765 19.354,28.115 20.672,27.637 C19.91,27.227 19.227,26.729 18.621,26.143 C18.016,25.557 17.5,24.905 17.076,24.187 C16.651,23.469 16.324,22.703 16.094,21.887 C15.865,21.072 15.75,20.234 15.75,19.375 C15.75,18.076 15.994,16.858 16.482,15.72 C16.971,14.583 17.64,13.589 18.489,12.739 C19.339,11.89 20.333,11.221 21.47,10.732 C22.608,10.244 23.826,10 25.125,10 C26.424,10 27.642,10.244 28.78,10.732 C29.917,11.221 30.911,11.89 31.761,12.739 C32.61,13.589 33.279,14.583 33.768,15.72 C34.256,16.858 34.5,18.076 34.5,19.375 C34.5,20.234 34.385,21.069 34.156,21.88 C33.926,22.69 33.599,23.452 33.174,24.165 C32.75,24.878 32.237,25.53 31.636,26.121 C31.036,26.711 30.359,27.212 29.607,27.622 C30.936,28.081 32.134,28.723 33.204,29.548 Z" id="path-1"></path>
    </defs>
    <g id="Atom-/-Ico-/-User" stroke="none" stroke-width="1" fill="none" fill-rule="evenodd">
        <mask id="mask-2" fill="white">
            <use xlink:href="#path-1"></use>
        </mask>
        <use id="Fill-99" fill="#000000" xlink:href="#path-1"></use>
        <g id="Atom-/-Color-/-Green---Accent" mask="url(#mask-2)" fill="#ffffff">
            <rect id="Rectangle" x="0" y="0" width="50" height="50"></rect>
        </g>
    </g>
</svg>